<?xml version="1.0" encoding="UTF-8"?>
<svg id="Layer_2" data-name="Layer 2" xmlns="http://www.w3.org/2000/svg" viewBox="0 0 436.41 436.4">
  <defs>
    <style>
      .cls-1, .cls-2, .cls-3, .cls-4 {
        stroke-width: 0px;
      }

      .cls-2 {
        fill: #b5a102;
      }

      .cls-3 {
        fill: #f2d600;
      }

      .cls-4 {
        fill: #fcf7cd;
      }
    </style>
  </defs>
  <g id="katman_1" data-name="katman 1">
    <g>
      <path class="cls-1" d="m218.2,0C97.69,0,0,97.69,0,218.2s97.69,218.2,218.2,218.2,218.2-97.69,218.2-218.2S338.71,0,218.2,0Zm0,376.34c-87.34,0-158.15-70.8-158.15-158.15S130.86,60.05,218.2,60.05s158.15,70.8,158.15,158.14-70.81,158.15-158.15,158.15Z"/>
      <path class="cls-3" d="m218.2,7.47C101.82,7.47,7.47,101.82,7.47,218.2s94.35,210.73,210.73,210.73,210.73-94.35,210.73-210.73S334.59,7.47,218.2,7.47Zm0,368.87c-87.34,0-158.15-70.8-158.15-158.15S130.86,60.05,218.2,60.05s158.15,70.8,158.15,158.14-70.81,158.15-158.15,158.15Z"/>
      <path class="cls-2" d="m320.33,86.1c-28.73-20.73-64-32.93-102.13-32.93s-73.39,12.2-102.13,32.93c-44.03,31.73-72.68,83.47-72.68,141.89,0,96.55,78.26,174.81,174.81,174.81s174.81-78.26,174.81-174.81c0-58.42-28.66-110.16-72.68-141.89Zm-102.13-26.04c87.34,0,158.15,70.8,158.15,158.14s-70.81,158.15-158.15,158.15S60.05,305.54,60.05,218.2,130.86,60.05,218.2,60.05Z"/>
      <path class="cls-1" d="m320.33,86.1c-28.23-21.86-63.66-34.87-102.13-34.87s-73.9,13.01-102.13,34.87c-39.45,30.53-64.84,78.35-64.84,132.1,0,92.22,74.75,166.98,166.97,166.98s166.97-74.76,166.97-166.98c0-53.74-25.4-101.56-64.84-132.1Zm-102.13,290.25c-87.34,0-158.15-70.8-158.15-158.15S130.86,60.05,218.2,60.05s158.15,70.8,158.15,158.14-70.81,158.15-158.15,158.15Z"/>
      <path class="cls-4" d="m69.53,97.19c8.67-13.82,19.77-26.25,32.46-36.96,6.36-5.34,13.11-10.26,20.22-14.68,1.79-1.08,3.57-2.19,5.38-3.24l5.52-3.01c1.85-1,3.74-1.93,5.64-2.85l2.86-1.34,2.9-1.26c30.96-13.22,65.57-18.03,99.29-13.57,8.39,1.17,16.69,2.84,24.86,5.01,8.14,2.25,16.2,4.85,23.98,8.13,1.97.76,3.88,1.66,5.8,2.52,1.92.88,3.86,1.7,5.73,2.68,1.88.95,3.78,1.88,5.65,2.85,1.85,1.01,3.67,2.07,5.51,3.1l2.74,1.56,2.62,1.57c1.76,1.06,3.53,2.11,5.29,3.23,3.52,2.23,7.04,4.57,10.47,7.05,3.44,2.47,6.75,5.15,9.95,7.94,3.21,2.78,6.28,5.72,9.17,8.82,2.91,3.07,5.65,6.3,8.23,9.62,1.26,1.68,2.55,3.34,3.73,5.08.6.86,1.21,1.71,1.8,2.58l1.71,2.64c.57.87,1.11,1.77,1.64,2.67l1.6,2.69c1,1.83,2.06,3.62,2.97,5.5,1.9,3.7,3.62,7.48,5.13,11.33,3.07,7.67,5.37,15.6,6.82,23.62-3.44-7.4-7.19-14.53-11.45-21.28-2.14-3.37-4.33-6.68-6.71-9.85-1.16-1.6-2.39-3.15-3.58-4.71l-1.87-2.29c-.62-.76-1.25-1.52-1.9-2.25l-1.93-2.22c-.65-.73-1.33-1.44-1.98-2.17-1.3-1.46-2.7-2.82-4.07-4.21-2.78-2.73-5.59-5.41-8.57-7.88-5.89-5.02-12.2-9.43-18.79-13.44-3.31-2-6.7-3.88-10.18-5.7l-5.27-2.75-2.68-1.38-2.63-1.28c-1.75-.84-3.49-1.7-5.24-2.53-1.78-.76-3.55-1.57-5.32-2.35-1.75-.82-3.58-1.49-5.37-2.22-1.8-.71-3.59-1.46-5.42-2.07-7.25-2.7-14.66-4.96-22.17-6.78-7.49-1.89-15.09-3.35-22.73-4.36-30.44-4.04-62.05-.99-91.58,8.75-3.68,1.24-7.33,2.54-10.93,4.03l-5.4,2.29-5.34,2.45c-7.07,3.38-14,7.15-20.71,11.35-6.73,4.17-13.24,8.77-19.55,13.71-6.29,4.97-12.36,10.29-18.27,15.9Z"/>
      <path class="cls-4" d="m112.19,385.03c27.33,12.19,56.51,20.74,86.4,23.15,46.57,4.14,93.3-7.57,134.37-29.59-34.08,28.88-79.74,42.83-124.2,40.41-2.49-.05-4.97-.37-7.44-.59-2.14-.24-5.32-.44-7.42-.82-2.55-.46-8.59-1.22-11.03-1.86-1.81-.39-5.47-1.17-7.28-1.56-22.66-5.62-44.66-15.16-63.4-29.15h0Z"/>
    </g>
  </g>
</svg>